<?xml version="1.0" standalone="no"?>
<!DOCTYPE svg PUBLIC "-//W3C//DTD SVG 20010904//EN"
 "http://www.w3.org/TR/2001/REC-SVG-20010904/DTD/svg10.dtd">
<svg version="1.0" xmlns="http://www.w3.org/2000/svg"
 width="700.000000pt" height="700.000000pt" viewBox="0 0 700.000000 700.000000"
 preserveAspectRatio="xMidYMid meet">
<metadata>
Created by potrace 1.11, written by Peter Selinger 2001-2013
</metadata>
<g transform="translate(0.000000,700.000000) scale(0.100000,-0.100000)"
fill="#000000" stroke="none">
<path d="M3285 6994 c-203 -20 -276 -28 -375 -45 -610 -105 -1195 -376 -1665
-772 -95 -81 -310 -294 -394 -392 -468 -542 -742 -1176 -833 -1925 -17 -137
-17 -583 0 -720 69 -569 227 -1028 514 -1491 145 -236 311 -440 525 -649 204
-200 371 -332 592 -468 463 -287 922 -445 1491 -514 137 -17 583 -17 720 0
569 69 1028 227 1491 514 360 222 692 528 958 882 323 430 549 960 640 1501
38 223 46 327 46 585 0 258 -8 362 -46 585 -105 627 -382 1216 -800 1700 -84
98 -299 311 -394 392 -518 437 -1148 710 -1845 798 -117 15 -536 28 -625 19z
m2476 -990 c39 -37 70 -92 105 -184 28 -72 29 -82 28 -240 -1 -152 -3 -174
-32 -281 -70 -260 -104 -329 -667 -1334 -401 -716 -446 -800 -430 -810 118
-69 211 -178 252 -297 29 -82 25 -123 -13 -159 -22 -21 -35 -24 -102 -24 -42
0 -151 6 -242 13 -131 9 -167 9 -176 -1 -26 -28 -576 -1163 -736 -1522 -68
-150 -110 -195 -183 -195 -21 0 -53 9 -71 21 -41 25 -116 142 -157 247 -26 66
-31 94 -35 192 -5 129 9 219 59 397 35 121 149 416 234 604 94 207 88 189 68
189 -10 0 -193 -24 -408 -54 -478 -67 -632 -85 -799 -94 l-129 -7 -174 -370
c-96 -203 -255 -548 -354 -766 -177 -390 -199 -428 -257 -458 -37 -19 -97 -16
-135 8 -19 11 -52 47 -74 78 -119 174 -149 373 -94 621 38 167 96 328 283 780
55 134 99 244 97 246 -2 2 -31 21 -65 44 -104 69 -197 186 -218 274 -10 42 9
77 51 95 38 16 130 15 343 -3 l75 -6 163 328 c457 919 975 1859 1309 2374 113
174 166 221 248 222 57 1 106 -35 152 -112 62 -101 86 -252 71 -433 -11 -134
-32 -229 -83 -385 -64 -193 -115 -293 -589 -1156 -235 -428 -426 -779 -424
-781 2 -1 129 19 283 45 696 120 816 139 910 150 55 6 110 13 122 16 17 3 51
62 156 266 424 828 915 1695 1223 2158 143 216 213 301 269 326 46 22 111 12
146 -22z m-802 -4285 c178 -76 231 -321 119 -547 -42 -84 -162 -209 -233 -242
-168 -77 -291 -65 -396 39 -146 146 -142 383 8 581 66 87 181 165 280 190 57
14 164 4 222 -21z"/>
</g>
</svg>
